<svg xmlns="http://www.w3.org/2000/svg" width="205.844" height="64.56" viewBox="0 0 205.844 64.56"><defs><style>.a{opacity:0.71;}.b{fill:#fff;}</style></defs><g class="a"><path class="b" d="M184.349,30.851h7.437a2.969,2.969,0,0,0,3.107,1.881c2.492,0,3.351-1.554,3.351-3.843V27.255h-.164a6.614,6.614,0,0,1-5.271,2.493c-4.74,0-8.867-3.515-8.867-10.379,0-6.293,3.391-11.2,8.5-11.2a6.422,6.422,0,0,1,5.925,3.065h.122V8.827h7.356V27.868a10.331,10.331,0,0,1-3.064,7.887c-1.92,1.716-4.659,2.41-7.764,2.41-5.844,0-9.93-2.41-10.666-7.315M198.57,19c0-2.738-1.307-4.944-3.554-4.944-2.166,0-3.556,1.961-3.556,4.944,0,2.942,1.389,5.067,3.556,5.067,2.247,0,3.554-2.165,3.554-5.067m-22.842-6.415h.122c1.593-3.065,3.678-4.209,6.333-4.209a2.971,2.971,0,0,1,1.266.2v6.742h-.163c-4.535-.817-7.191,1.349-7.191,6.293V30.81h-7.723V8.827h7.356v3.759ZM0,0H15.12a10.235,10.235,0,0,1,6.62,1.961,7.58,7.58,0,0,1,2.7,6.088A5.881,5.881,0,0,1,20.8,13.975V14.1a7.422,7.422,0,0,1,5.025,7.4,8.915,8.915,0,0,1-3.351,7.437,11.7,11.7,0,0,1-7.068,1.88H0ZM14.384,23.986A2.948,2.948,0,0,0,17.57,20.84a2.977,2.977,0,0,0-3.227-3.147H8.377v6.292Zm-.776-11.932a2.544,2.544,0,0,0,2.819-2.7c0-1.757-1.226-2.615-2.86-2.615H8.377v5.312h5.23Z"/><path class="b" d="M66.112,0h7.927V30.81H66.112Zm9.44,19.859c0-6.946,4.495-11.645,11.44-11.645s11.361,4.7,11.361,11.645c0,6.988-4.413,11.645-11.361,11.645s-11.44-4.657-11.44-11.645m14.955,0c0-3.841-1.227-6.251-3.6-6.251S83.4,16.018,83.4,19.859c0,3.882,1.144,6.293,3.513,6.293s3.6-2.411,3.6-6.293m8.748,0c0-6.946,4.495-11.645,11.44-11.645s11.361,4.7,11.361,11.645c0,6.988-4.413,11.645-11.361,11.645s-11.44-4.657-11.44-11.645m14.955,0c0-3.841-1.227-6.251-3.6-6.251s-3.513,2.411-3.513,6.251c0,3.882,1.144,6.293,3.513,6.293s3.6-2.411,3.6-6.293M123.57,8.827h7.356v3.309h.122a7.039,7.039,0,0,1,6.62-3.963,6.142,6.142,0,0,1,5.925,3.8h.122a7.378,7.378,0,0,1,6.824-3.8c5.108,0,7.315,3.759,7.315,8.826V30.81H150.13V18.388c0-2.248-.695-3.719-2.656-3.719-1.921,0-2.9,1.8-2.9,4.169V30.81h-7.722V18.388c0-2.248-.695-3.719-2.656-3.719-1.922,0-2.9,1.8-2.9,4.169V30.81H123.57ZM167.3,27.95h-.081v2.86h-7.356V0h7.723V11.115h.122a7.306,7.306,0,0,1,6.252-2.942c5.517,0,8.7,4.985,8.7,11.605,0,7.477-3.473,11.768-9.193,11.768a6.945,6.945,0,0,1-6.171-3.6m7.519-8.254c0-3.556-1.307-5.844-3.637-5.844-2.369,0-3.881,2.288-3.881,5.844,0,3.513,1.512,5.843,3.881,5.843s3.637-2.289,3.637-5.843m8.828.082c0-6.865,4.536-11.645,11.115-11.645a10.69,10.69,0,0,1,7.723,2.86c2.534,2.452,3.678,6.292,3.595,10.829h-14.75c.327,2.738,1.634,4.127,3.963,4.127a2.966,2.966,0,0,0,3.025-2.084h7.436c-1.307,5.025-5.188,7.559-10.7,7.559-6.824,0-11.4-4.617-11.4-11.645m7.683-2.288h7.029c-.124-2.656-1.595-4.046-3.434-4.046-2.123,0-3.308,1.512-3.595,4.046" transform="translate(-38.894)"/><path class="b" d="M0,80.19H15.12a10.228,10.228,0,0,1,6.62,1.963,7.576,7.576,0,0,1,2.7,6.088A5.882,5.882,0,0,1,20.8,94.166v.122a7.424,7.424,0,0,1,5.025,7.4,8.914,8.914,0,0,1-3.351,7.437A11.706,11.706,0,0,1,15.406,111H0Zm14.384,23.987a3.147,3.147,0,1,0-.041-6.293H8.377v6.293Zm-.776-11.932a2.545,2.545,0,0,0,2.819-2.7c0-1.756-1.226-2.615-2.86-2.615H8.377v5.313h5.23ZM41.11,111V108.14h-.122a7.483,7.483,0,0,1-6.5,3.556c-4.985,0-7.437-3.432-7.437-8.5V89.017h7.723v12.462c0,2.493.941,3.475,2.78,3.475,2,0,3.186-1.349,3.186-3.883V89.017h7.723V111H41.11Zm8.583-6.947h7.152a2.828,2.828,0,0,0,3.146,2.861c1.512,0,2.656-.449,2.656-1.961,0-1.8-2.41-1.92-5.108-2.371-3.513-.531-7.559-1.675-7.559-7.191,0-4.495,4.373-7.029,9.481-7.029,6.334,0,9.643,2.493,9.929,6.783H62.117A2.283,2.283,0,0,0,59.5,93.063c-1.144,0-2.207.449-2.207,1.715,0,1.227,1.92,1.554,4.29,1.88,3.8.573,8.622,1.471,8.622,7.561,0,5.271-4.536,7.519-10.256,7.519-6.171,0-10.215-2.656-10.257-7.683M71.476,89.017H79.2V111H71.476V89.017Zm0-7.927H79.2v6.17H71.476Z" transform="translate(0 -47.177)"/><g transform="translate(81.367 41.145)"><path class="b" d="M205,103.661h.122a7.717,7.717,0,0,1,6.7-3.678c4.822,0,7.315,3.391,7.315,8.419v14.22h-7.724V110.2c0-2.452-.9-3.8-2.9-3.8-1.961,0-3.146,1.636-3.146,4.169v12.054h-7.723V100.638H205v3.024Zm15.489,7.927c0-6.864,4.536-11.645,11.115-11.645a10.689,10.689,0,0,1,7.722,2.861c2.534,2.451,3.678,6.293,3.6,10.829H228.168c.327,2.737,1.636,4.127,3.964,4.127a2.964,2.964,0,0,0,3.024-2.084h7.437c-1.308,5.027-5.19,7.561-10.707,7.561-6.823,0-11.4-4.618-11.4-11.647m7.681-2.288H235.2c-.122-2.656-1.593-4.046-3.432-4.046-2.126,0-3.31,1.512-3.6,4.046m15.525,6.375h7.151a2.83,2.83,0,0,0,3.147,2.861c1.512,0,2.656-.449,2.656-1.961,0-1.8-2.412-1.92-5.108-2.371-3.513-.531-7.559-1.675-7.559-7.191,0-4.495,4.373-7.029,9.48-7.029,6.333,0,9.643,2.493,9.93,6.783h-7.274a2.282,2.282,0,0,0-2.615-2.083c-1.144,0-2.2.449-2.2,1.715,0,1.227,1.92,1.554,4.29,1.88,3.8.573,8.622,1.471,8.622,7.561,0,5.271-4.536,7.519-10.256,7.519-6.171,0-10.216-2.656-10.257-7.683m21.335,0h7.151a2.83,2.83,0,0,0,3.147,2.861c1.512,0,2.656-.449,2.656-1.961,0-1.8-2.412-1.92-5.108-2.371-3.513-.531-7.559-1.675-7.559-7.191,0-4.495,4.373-7.029,9.48-7.029,6.333,0,9.643,2.493,9.93,6.783H277.45a2.282,2.282,0,0,0-2.615-2.083c-1.144,0-2.205.449-2.205,1.715,0,1.227,1.92,1.554,4.29,1.88,3.8.573,8.622,1.471,8.622,7.561,0,5.271-4.536,7.519-10.256,7.519-6.171,0-10.216-2.656-10.257-7.683" transform="translate(-197.642 -99.943)"/></g></g></svg>