<svg xmlns="http://www.w3.org/2000/svg" width="71.628" height="58.848" viewBox="0 0 71.628 58.848"><defs><style>.a{fill:#f7941d;}</style></defs><path class="a" d="M1.371,53.331H11.2a1.371,1.371,0,0,0,1.371-1.371V42.131A1.371,1.371,0,0,0,11.2,40.759H2.743v-1l2.463-2.463a1.371,1.371,0,0,0-1.939-1.939L.4,38.217a1.372,1.372,0,0,0-.4.97V51.96A1.371,1.371,0,0,0,1.371,53.331ZM9.83,43.5v7.087H2.743V43.5Z" transform="translate(0 -34.951)"/><path class="a" d="M87.559,53.331h9.83A1.371,1.371,0,0,0,98.76,51.96V42.131a1.371,1.371,0,0,0-1.371-1.371H88.931v-1l2.463-2.463a1.371,1.371,0,0,0-1.939-1.939L86.59,38.217a1.372,1.372,0,0,0-.4.97V51.96A1.371,1.371,0,0,0,87.559,53.331ZM96.018,43.5v7.087H88.93V43.5Z" transform="translate(-70.43 -34.951)"/><path class="a" d="M334.2,256.281h-9.83A1.371,1.371,0,0,0,323,257.652v9.83a1.371,1.371,0,0,0,1.371,1.371h8.458v1l-2.463,2.463a1.371,1.371,0,0,0,1.939,1.939l2.865-2.865a1.372,1.372,0,0,0,.4-.97V257.652A1.371,1.371,0,0,0,334.2,256.281Zm-8.458,9.83v-7.087h7.087v7.087Z" transform="translate(-263.944 -215.814)"/><path class="a" d="M248.013,256.281h-9.83a1.371,1.371,0,0,0-1.371,1.371v9.83a1.371,1.371,0,0,0,1.371,1.371h8.458v1l-2.463,2.463a1.371,1.371,0,0,0,1.94,1.939l2.865-2.865a1.372,1.372,0,0,0,.4-.97V257.652A1.371,1.371,0,0,0,248.013,256.281Zm-8.458,9.83v-7.087h7.087v7.087Z" transform="translate(-193.514 -215.814)"/><path class="a" d="M179.491,123.223H215.81a1.371,1.371,0,1,0,0-2.743H179.491a1.371,1.371,0,0,0,0,2.743Z" transform="translate(-145.553 -104.842)"/><path class="a" d="M70.257,167.871H1.371a1.371,1.371,0,0,0,0,2.743H70.257a1.371,1.371,0,0,0,0-2.743Z" transform="translate(0 -143.568)"/><path class="a" d="M70.257,215.262H1.371a1.371,1.371,0,0,0,0,2.743H70.257a1.371,1.371,0,0,0,0-2.743Z" transform="translate(0 -182.295)"/><path class="a" d="M37.722,310.043H1.371a1.371,1.371,0,0,0,0,2.743H37.722a1.371,1.371,0,0,0,0-2.743Z" transform="translate(0 -259.746)"/><path class="a" d="M37.722,262.652H1.371a1.371,1.371,0,0,0,0,2.743H37.722a1.371,1.371,0,0,0,0-2.743Z" transform="translate(0 -221.02)"/></svg>