<svg xmlns="http://www.w3.org/2000/svg" width="323.655" height="45.654" viewBox="0 0 323.655 45.654"><defs><style>.a{opacity:0.71;}.b{fill:#fff;}</style></defs><g class="a"><path class="b" d="M127.839,39.006c0-9.374-6.393-14.836-14.818-14.836A14.7,14.7,0,0,0,97.806,39.505,14.87,14.87,0,0,0,113.02,55.013a17.748,17.748,0,0,0,8.874-2.24,12.061,12.061,0,0,0,5.686-7.409h-6.186c-1.516,2.722-4.221,4.049-8.047,4.049-5.169,0-9.012-4.049-9.012-7.909H127.77c.069-1.1.069-1.792.069-2.5Zm-23.572-2.946a8.185,8.185,0,0,1,8.512-6.41c4.428,0,8.064,2.654,8.615,6.41H104.267Z" transform="translate(195.816 -9.575)"/><path class="b" d="M23.549,43.348a8.891,8.891,0,1,1,.1-7.323h6.892a15.508,15.508,0,1,0,0,7.323h-7Z" transform="translate(0.032 -9.541)"/><path class="b" d="M30.86,25.475a13.888,13.888,0,0,0-6.2-1.31,11.527,11.527,0,0,0-6.238,1.913v-.862H12.079V53.975h6.375V40.19a23.02,23.02,0,0,1,.4-5.6v-.138a4.859,4.859,0,0,1,2.378-2.878,6.41,6.41,0,0,1,6.892,0Z" transform="translate(24.27 -9.571)"/><path class="b" d="M38.867,24.514V38.3a23.021,23.021,0,0,1-.4,5.6v.138a4.859,4.859,0,0,1-2.343,2.86,6.41,6.41,0,0,1-6.892,0,4.859,4.859,0,0,1-2.343-2.86V43.9a23.02,23.02,0,0,1-.4-5.6V24.514H20.138v15.68a19.2,19.2,0,0,0,1.086,7.564,9.735,9.735,0,0,0,5.169,5.169,13.888,13.888,0,0,0,6.2,1.31,11.528,11.528,0,0,0,6.238-1.913v.948h6.289V24.514Z" transform="translate(40.335 -8.868)"/><path class="b" d="M37.393,53.917V40.133a23.021,23.021,0,0,1,.431-5.617v-.138a4.859,4.859,0,0,1,2.343-2.86,6.41,6.41,0,0,1,6.892,0,4.859,4.859,0,0,1,2.343,2.86v.138a23.021,23.021,0,0,1,.362,5.617V53.917h6.324V38.237a19.2,19.2,0,0,0-1.034-7.564A9.735,9.735,0,0,0,49.886,25.5a13.888,13.888,0,0,0-6.2-1.31,11.527,11.527,0,0,0-6.238,1.913v-.862H31.07V53.917Z" transform="translate(62.279 -9.514)"/><path class="b" d="M64.907,43.348a8.891,8.891,0,1,1,.1-7.323H71.9a15.508,15.508,0,1,0,0,7.323h-7Z" transform="translate(82.805 -9.541)"/><path class="b" d="M59.777,63.7V49.92a23.021,23.021,0,0,1,.4-5.6v-.138A4.859,4.859,0,0,1,62.551,41.3a6.41,6.41,0,0,1,6.892,0,4.859,4.859,0,0,1,2.343,2.86V44.3a23.019,23.019,0,0,1,.4,5.6V63.687h6.324V48.007a19.2,19.2,0,0,0-1.086-7.564,9.735,9.735,0,0,0-5.169-5.169,13.888,13.888,0,0,0-6.2-1.31,11.527,11.527,0,0,0-6.238,1.913V19.3H53.454V63.7Z" transform="translate(107.078 -19.301)"/><path class="b" d="M79.4,33.9H78.266a15.3,15.3,0,0,0-7.582,2.671V19.3H64.4V63.7h6.324v-1.62A15.508,15.508,0,1,0,79.4,33.9Zm8.891,16.61v.276a7.792,7.792,0,0,1-.672,2.206v.138A8.943,8.943,0,0,1,81.4,58l-.844.138h-.19a8.753,8.753,0,0,1-.965,0,8.889,8.889,0,0,1-1.206-.086h-.276a8.806,8.806,0,0,1-2.257-.689h-.172a8.842,8.842,0,0,1,3.1-16.7,8.805,8.805,0,0,1,.913,0,9.255,9.255,0,0,1,8.788,9.839Z" transform="translate(128.977 -19.301)"/><path class="b" d="M111.591,33.836V33.7c0-4.687-3.6-9.46-11.631-9.546s-11.51,4.721-11.614,9.339v.345c.172,2.705,1.723,6.151,7.719,7.564l5.342,1.206c1.378.31,3.722,1.086,3.911,2.843,0,2.43-3.119,3.7-5.359,3.7-2.585,0-5.359-1.43-5.359-3.722v-.138H88.347v.086c0,4.687,3.6,9.46,11.631,9.546s11.631-4.842,11.631-9.546v-.086c-.138-2.74-1.62-6.238-7.719-7.65l-5.342-1.206c-1.172-.258-3.911-1.051-3.911-2.791,0-2.722,2.774-3.687,5.359-3.687s5.359,1.43,5.359,3.722v.155h6.255Z" transform="translate(176.913 -9.593)"/><path class="b" d="M76.262,39.516a15.508,15.508,0,0,0,24.123,12.751V53.9h6.324V25.146H100.42v1.723A15.3,15.3,0,0,0,92.838,24.2H91.7A15.508,15.508,0,0,0,76.262,39.516Zm6.53,0a8.908,8.908,0,0,1,8.891-8.891,8.8,8.8,0,0,1,.913,0,8.813,8.813,0,0,1,3.1,16.7h-.172a8.8,8.8,0,0,1-2.257.689h-.276a8.889,8.889,0,0,1-1.206.086,8.756,8.756,0,0,1-.965,0H90.7l-.844-.138a8.943,8.943,0,0,1-6.082-4.842v-.138a7.789,7.789,0,0,1-.672-2.206V40.5a8.871,8.871,0,0,1-.31-.982Z" transform="translate(152.727 -9.5)"/></g></svg>