<svg xmlns="http://www.w3.org/2000/svg" width="102.641" height="106.045" viewBox="0 0 102.641 106.045"><defs><style>.a{fill:#1ae5be;}</style></defs><path class="a" d="M103.346,48.294A24.146,24.146,0,1,0,79.2,24.147,24.146,24.146,0,0,0,103.346,48.294Zm0-43.724A19.578,19.578,0,1,1,83.769,24.147,19.578,19.578,0,0,1,103.346,4.57Zm0,0" transform="translate(-64.671 -0.001)"/><path class="a" d="M101.163,289.9,81.471,279.415a2.225,2.225,0,0,0-2.17.022l-18.024,9.869a38,38,0,0,0-22.912-7.47A37.915,37.915,0,0,0,11,293.327,40.657,40.657,0,0,0-.266,322.088a2.291,2.291,0,0,0,2.284,2.285l63.553-.114A29.523,29.523,0,0,0,76.765,332.8l2.65,1.165a2.112,2.112,0,0,0,.914.183,2.6,2.6,0,0,0,.913-.183l2.993-1.3a29.583,29.583,0,0,0,18.139-27.3V291.933a2.309,2.309,0,0,0-1.211-2.033ZM4.371,319.781A35.834,35.834,0,0,1,14.286,296.5a33.311,33.311,0,0,1,24.1-10.1h.069a33.379,33.379,0,0,1,20.515,6.876V305.64a29.556,29.556,0,0,0,3.563,14.049Zm93.434-14.415a25.019,25.019,0,0,1-15.375,23.1h-.023l-2.078.891-1.737-.754a25.105,25.105,0,0,1-15.054-22.981V293.259l16.882-9.252,17.385,9.275Zm0,0" transform="translate(0.266 -228.106)"/><path class="a" d="M388.837,395.655a2.284,2.284,0,1,0-3.472,2.97l5.185,6.054a2.3,2.3,0,0,0,1.736.8,2.255,2.255,0,0,0,1.439-.5l12.062-9.8a2.289,2.289,0,0,0-2.9-3.541l-10.326,8.407Zm0,0" transform="translate(-314.41 -319.606)"/></svg>