<svg xmlns="http://www.w3.org/2000/svg" width="237.234" height="61.479" viewBox="0 0 237.234 61.479"><defs><style>.a{opacity:0.71;}.b,.c{fill:#fff;}.c{fill-rule:evenodd;}</style></defs><g class="a"><path class="b" d="M244.882,11.209h1.043a1.713,1.713,0,0,0,1.024-.222.721.721,0,0,0,.269-.588.713.713,0,0,0-.131-.422.763.763,0,0,0-.365-.276,2.563,2.563,0,0,0-.864-.092h-.977Zm-.862,3V8.883h1.832a4.563,4.563,0,0,1,1.362.147,1.32,1.32,0,0,1,.669.518,1.355,1.355,0,0,1,.25.776,1.424,1.424,0,0,1-.418,1.018,1.659,1.659,0,0,1-1.107.485,1.451,1.451,0,0,1,.453.282,6.187,6.187,0,0,1,.785,1.057l.648,1.046h-1.058l-.469-.841a4.523,4.523,0,0,0-.891-1.238,1.082,1.082,0,0,0-.686-.188h-.506v2.267Zm2.169-6.883a4.247,4.247,0,0,0-2.037.535A3.868,3.868,0,0,0,242.6,9.4a4.143,4.143,0,0,0-.011,4.133,3.9,3.9,0,0,0,1.539,1.53,4.119,4.119,0,0,0,4.117,0,3.862,3.862,0,0,0,1.532-1.53,4.143,4.143,0,0,0-.008-4.133,3.832,3.832,0,0,0-1.549-1.536,4.248,4.248,0,0,0-2.034-.534m0-.818a5.086,5.086,0,0,1,2.439.641,4.536,4.536,0,0,1,1.853,1.834,4.984,4.984,0,0,1,.012,4.954,4.636,4.636,0,0,1-1.838,1.839,4.994,4.994,0,0,1-4.935,0,4.664,4.664,0,0,1-1.838-1.839,4.956,4.956,0,0,1,.011-4.954,4.578,4.578,0,0,1,1.855-1.833,5.089,5.089,0,0,1,2.441-.642" transform="translate(-13.912 -0.376)"/><path class="c" d="M27.011.008a23.709,23.709,0,0,0-7.363,1.442C10.44,5.292,4.037,13.677,1.14,23.737a40.156,40.156,0,0,0-1.1,5.729c0,.063-.153,1.984.122,1.465a7.451,7.451,0,0,0,.548-1.647,49.939,49.939,0,0,1,5.733-13.11C12.726,6.936,22.817.991,33.487,4.285a24.047,24.047,0,0,1,5.518,2.8c.335.244,2.8,2.2,2.256.427a9.2,9.2,0,0,0-2.622-3.537A16.69,16.69,0,0,0,27.011.008Zm77.876,9.244a3.873,3.873,0,0,0-3.292,1.5,6.818,6.818,0,0,0-1.158,4.36v13.9a19.155,19.155,0,0,0-5.456-4.3,13.463,13.463,0,0,0-4.058-1.218,20.417,20.417,0,0,0-2.8-.182A14.343,14.343,0,0,0,76.78,28.245q-4.3,4.94-4.3,13.752a27.353,27.353,0,0,0,1.068,7.743,18.815,18.815,0,0,0,3.2,6.219,14.956,14.956,0,0,0,5,4.087A13.981,13.981,0,0,0,88,61.479a15.422,15.422,0,0,0,2.926-.276,11.454,11.454,0,0,0,1.769-.425A15.045,15.045,0,0,0,96.686,58.7a24.9,24.9,0,0,0,3.75-3.537v.912a5.863,5.863,0,0,0,1.25,4,4.385,4.385,0,0,0,6.372.061,5.862,5.862,0,0,0,1.218-4.057V14.618a6.11,6.11,0,0,0-1.128-3.994,4.1,4.1,0,0,0-3.261-1.373Zm115.058,0a3.869,3.869,0,0,0-3.292,1.5,7.006,7.006,0,0,0-1.159,4.36v13.9a19.155,19.155,0,0,0-5.456-4.3,13.206,13.206,0,0,0-4.056-1.218,20.418,20.418,0,0,0-2.805-.182,14.392,14.392,0,0,0-11.341,4.936q-4.3,4.94-4.3,13.752a26.274,26.274,0,0,0,1.1,7.743,18.708,18.708,0,0,0,3.171,6.219,14.94,14.94,0,0,0,5,4.087,13.978,13.978,0,0,0,6.25,1.432,15,15,0,0,0,2.926-.276,11.361,11.361,0,0,0,1.767-.425,15.027,15.027,0,0,0,3.994-2.073,23.466,23.466,0,0,0,3.75-3.537v.912a5.853,5.853,0,0,0,1.25,4,4.421,4.421,0,0,0,6.4.061,5.866,5.866,0,0,0,1.25-4.057V14.618a6.121,6.121,0,0,0-1.157-3.994,4.091,4.091,0,0,0-3.3-1.373ZM24.608,11.791a7.738,7.738,0,1,0,6.683,4.234,7.678,7.678,0,0,0-6.683-4.234ZM130.832,23.186a21.569,21.569,0,0,0-7.439,1.34,16.065,16.065,0,0,0-5.853,3.906,17.108,17.108,0,0,0-3.63,6.127,23.568,23.568,0,0,0-1.25,7.744c0,5.915,1.707,10.547,5.06,13.992,3.171,3.264,7.532,4.97,13.111,5.152.335.032.64.033.975.033a21.515,21.515,0,0,0,7.013-1.037,17.474,17.474,0,0,0,5.059-2.593,11.927,11.927,0,0,0,3.02-3.292,6.059,6.059,0,0,0,1-2.955,2.875,2.875,0,0,0-.883-2.228,3.534,3.534,0,0,0-2.348-.792,3.18,3.18,0,0,0-2.073.611q-1.406,1.339-2.865,2.622a25.951,25.951,0,0,1-2.41,1.8,9.788,9.788,0,0,1-2.714,1.22,10.8,10.8,0,0,1-3.079.4,5.054,5.054,0,0,1-.7-.031,8.362,8.362,0,0,1-3.9-1.22,8.9,8.9,0,0,1-3.323-3.626,12.519,12.519,0,0,1-1.313-5.67H140.71a13.266,13.266,0,0,0,5.731-1.037c1.343-.731,2.014-2.257,2.014-4.6a15.833,15.833,0,0,0-1.952-7.529,15.529,15.529,0,0,0-5.913-6.008,18.282,18.282,0,0,0-9.452-2.317Zm37.652,0a21.435,21.435,0,0,0-7.439,1.34,16.485,16.485,0,0,0-5.887,3.906,17.48,17.48,0,0,0-3.594,6.127,23.544,23.544,0,0,0-1.251,7.744c0,5.915,1.676,10.547,5.03,13.992,3.169,3.264,7.561,4.97,13.141,5.152a9.582,9.582,0,0,0,.973.033,21.634,21.634,0,0,0,7.013-1.037,17.48,17.48,0,0,0,5.06-2.593,12.4,12.4,0,0,0,3.019-3.292,6.074,6.074,0,0,0,1.006-2.955,2.8,2.8,0,0,0-.916-2.228,3.419,3.419,0,0,0-2.346-.792,3.143,3.143,0,0,0-2.044.611c-1.189,1.1-2.132,1.982-2.864,2.622a26.369,26.369,0,0,1-2.441,1.8,9.578,9.578,0,0,1-2.681,1.22,10.963,10.963,0,0,1-3.08.4,5.055,5.055,0,0,1-.7-.031,8.373,8.373,0,0,1-3.9-1.22,8.981,8.981,0,0,1-3.353-3.626,12.926,12.926,0,0,1-1.282-5.67h18.383a13.092,13.092,0,0,0,5.733-1.037c1.373-.731,2.041-2.257,2.041-4.6a15.87,15.87,0,0,0-1.98-7.529,15.325,15.325,0,0,0-5.916-6.008,18.192,18.192,0,0,0-9.451-2.317Zm-128.046.063a4.01,4.01,0,0,0-3.2,1.34,5.739,5.739,0,0,0-1.189,3.994V55.746a6.147,6.147,0,0,0,1.31,4.239,4.238,4.238,0,0,0,3.355,1.495,4.476,4.476,0,0,0,3.415-1.432,6.163,6.163,0,0,0,1.342-4.3V44.009c0-3.873.213-6.463.67-7.867A8.677,8.677,0,0,1,49.188,32,7.74,7.74,0,0,1,53.762,30.5c2.558,0,4.3.824,5.152,2.468A15.883,15.883,0,0,1,60.2,40.107V55.746a6.138,6.138,0,0,0,1.31,4.239,4.314,4.314,0,0,0,3.414,1.495,4.259,4.259,0,0,0,3.353-1.465,6.206,6.206,0,0,0,1.311-4.268V38.278a38.2,38.2,0,0,0-.274-5.092,10.628,10.628,0,0,0-1.218-3.749,10.207,10.207,0,0,0-4.36-4.573,13.649,13.649,0,0,0-6.646-1.614,14.771,14.771,0,0,0-6.8,1.524,16.911,16.911,0,0,0-5.428,4.815V28.432A6.291,6.291,0,0,0,44.28,25.6a4.163,4.163,0,0,0-1.615-1.769,4.261,4.261,0,0,0-2.226-.578ZM130.8,29.742h.029a7.76,7.76,0,0,1,5.913,2.378c1.527,1.584,2.378,3.994,2.622,7.226H122.295c.336-3.17,1.25-5.579,2.744-7.195a7.481,7.481,0,0,1,5.763-2.41Zm37.651,0h.031A7.753,7.753,0,0,1,174.4,32.12c1.5,1.584,2.379,3.994,2.593,7.226H159.947c.3-3.17,1.219-5.579,2.744-7.195a7.483,7.483,0,0,1,5.762-2.41ZM90.8,30.29h.119a7.592,7.592,0,0,1,4.452,1.434A9.6,9.6,0,0,1,98.7,35.839a15.95,15.95,0,0,1,1.22,6.464,16.291,16.291,0,0,1-1.22,6.674,8.852,8.852,0,0,1-3.292,3.931,8.259,8.259,0,0,1-4.484,1.283h-.028a8.161,8.161,0,0,1-4.514-1.342,9.023,9.023,0,0,1-3.26-4.024A16.082,16.082,0,0,1,81.931,42.3a16.85,16.85,0,0,1,1.1-6.342A9.418,9.418,0,0,1,86.2,31.753,7.467,7.467,0,0,1,90.8,30.29Zm115.086,0h.092a7.749,7.749,0,0,1,4.482,1.434,9.768,9.768,0,0,1,3.292,4.115,15.474,15.474,0,0,1,1.22,6.464,15.823,15.823,0,0,1-1.22,6.674,9,9,0,0,1-3.263,3.931,8.346,8.346,0,0,1-4.511,1.283h-.029a8.163,8.163,0,0,1-4.514-1.342,9.233,9.233,0,0,1-3.26-4.024A16.1,16.1,0,0,1,196.99,42.3a16.233,16.233,0,0,1,1.126-6.342,9.372,9.372,0,0,1,3.142-4.207A7.554,7.554,0,0,1,205.89,30.29ZM29.828,30.6a16.222,16.222,0,0,1-8.354,2.285c-.639,0-1.25-.029-1.89-.091V55.229a6.724,6.724,0,0,0,1.434,4.665,4.7,4.7,0,0,0,3.659,1.585,4.8,4.8,0,0,0,3.717-1.555,6.748,6.748,0,0,0,1.433-4.7V30.6Z" transform="translate(0.001 0)"/></g></svg>